Coordinates
version=1
nRows=19
nColumns=24
inDegrees=yes

Units are S.I. units (second, meters, Newtons, ...)
Angles are in degrees.

endheader
time	pelvis_tilt	pelvis_list	pelvis_rotation	pelvis_tx	pelvis_ty	pelvis_tz	hip_flexion_r	hip_adduction_r	hip_rotation_r	knee_angle_r	ankle_angle_r	subtalar_angle_r	mtp_angle_r	hip_flexion_l	hip_adduction_l	hip_rotation_l	knee_angle_l	ankle_angle_l	subtalar_angle_l	mtp_angle_l	lumbar_extension	lumbar_bending	lumbar_rotation
      4.83000000	     -7.73671539	     -6.75771430	      4.50644053	     -1.40760487	      0.00099734	     -0.22681879	      9.68799688	     11.80214964	      7.14709692	     -9.85395301	     17.08335080	      4.04131803	    -45.84028821	     26.47356003	     -9.03800973	      1.19158992	    -62.81524963	    -12.94384356	     -7.37636069	     20.56973580	      6.97440279	      5.92114728	      0.44617491
      4.83500000	     -7.72012248	     -6.52281369	      4.30827697	     -1.40282364	      0.00138585	     -0.22623479	      9.15134968	     11.62260108	      7.34318608	     -9.56311218	     17.21528845	      4.12801014	    -45.84530523	     26.97426141	     -8.76744907	      0.92975032	    -62.27228008	    -12.46533314	     -7.08650816	     21.26265954	      6.82302893	      5.69406289	      0.84525666
      4.84000000	     -7.77538645	     -6.29423641	      4.12956356	     -1.39802618	      0.00162674	     -0.22576306	      8.70151418	     11.42376094	      7.49232229	     -9.29079219	     17.42207646	      4.31068995	    -45.80083898	     27.55644433	     -8.47519224	      0.67760216	    -61.71084097	    -11.95311447	     -6.80569557	     21.59067544	      6.76722437	      5.47529407	      1.15792660
      4.84500000	     -7.76512225	     -6.11297721	      3.87949634	     -1.39330322	      0.00186878	     -0.22519868	      8.20248391	     11.29091072	      7.64932984	     -9.04633988	     17.60404656	      4.54925944	    -45.78276264	     28.03802931	     -8.27962139	      0.38537067	    -61.08872915	    -11.38871332	     -6.48492511	     22.02263064	      6.61579492	      5.32134391	      1.57866921
      4.85000000	     -7.76191693	     -5.92605375	      3.67634862	     -1.38855507	      0.00205092	     -0.22471273	      7.70671507	     11.14027320	      7.78174930	     -8.78778511	     17.79814392	      4.74049220	    -45.77457365	     28.51976347	     -8.04930676	      0.13296553	    -60.41107111	    -10.88938516	     -6.23706713	     22.38616602	      6.48597321	      5.15287424	      1.94189579
      4.85500000	     -7.79035081	     -5.73845968	      3.51026703	     -1.38379961	      0.00215026	     -0.22427986	      7.24711875	     10.97987948	      7.87897160	     -8.52213032	     17.98997763	      4.88670627	    -45.75621266	     29.03026898	     -7.79071748	     -0.07862223	    -59.68539444	    -10.43405303	     -6.03143630	     22.64132231	      6.40182317	      4.97216402	      2.26828494
      4.86000000	     -7.77691866	     -5.57840810	      3.28500210	     -1.37906491	      0.00221967	     -0.22383190	      6.75770442	     10.85463577	      8.01788203	     -8.29114987	     18.20153575	      5.07782033	    -45.74286887	     29.46484033	     -7.59800223	     -0.33941085	    -58.90843321	     -9.93994283	     -5.81960024	     22.91201401	      6.26261777	      4.84759926	      2.65681222
      4.86500000	     -7.76249002	     -5.42667546	      3.07035266	     -1.37434503	      0.00224519	     -0.22340668	      6.27427233	     10.73526674	      8.15680780	     -8.06593292	     18.40580562	      5.24193879	    -45.74014334	     29.88245761	     -7.40182467	     -0.57210394	    -58.07624148	     -9.47385720	     -5.65359505	     23.12487238	      6.12308054	      4.72638380	      3.02373980
      4.87000000	     -7.71291714	     -5.29185316	      2.82165431	     -1.36965049	      0.00226311	     -0.22296474	      5.76352092	     10.63673892	      8.33605766	     -7.86105892	     18.60434625	      5.40913473	    -45.76894771	     30.23434213	     -7.24334756	     -0.82325524	    -57.18825528	     -9.00480607	     -5.51209963	     23.30098648	      5.93644433	      4.62601256	      3.41692631
      4.87500000	     -7.69248787	     -5.15198316	      2.59611971	     -1.36494188	      0.00220354	     -0.22257085	      5.28897085	     10.52733798	      8.51895795	     -7.66292733	     18.81272753	      5.52158174	    -45.79545810	     30.60301011	     -7.06080856	     -1.04409167	    -56.25106400	     -8.56321649	     -5.37918591	     23.40090079	      5.79053925	      4.51699368	      3.78227049
      4.88000000	     -7.69773780	     -5.01607748	      2.38487328	     -1.36022230	      0.00206334	     -0.22219780	      4.85177155	     10.42082846	      8.69657753	     -7.48163709	     19.03116547	      5.58772519	    -45.79950547	     30.98333348	     -6.87178144	     -1.23587916	    -55.26657098	     -8.14533108	     -5.24617214	     23.45010936	      5.68168207	      4.40233771	      4.13527559
      4.88500000	     -7.64622355	     -4.89724563	      2.10941631	     -1.35552031	      0.00196240	     -0.22180940	      4.35194784	     10.33451838	      8.97325221	     -7.30346207	     19.22192407	      5.64401290	    -45.84108800	     31.26580854	     -6.74497978	     -1.49231869	    -54.23028462	     -7.71698924	     -5.09599165	     23.41986404	      5.50055302	      4.33554792	      4.56251715
      4.89000000	     -7.62610049	     -4.77459602	      1.85810710	     -1.35083276	      0.00179757	     -0.22144296	      3.89900044	     10.24275824	      9.25825278	     -7.14456832	     19.40084748	      5.62923443	    -45.87495346	     31.56332574	     -6.59225928	     -1.69730758	    -53.13988065	     -7.31349338	     -4.93834869	     23.32713359	      5.35436374	      4.24717995	      4.94380910
      4.89500000	     -7.59671345	     -4.65894500	      1.59046367	     -1.34617898	      0.00162601	     -0.22111683	      3.44032692	     10.15500048	      9.60048667	     -6.98964503	     19.54169019	      5.55335684	    -45.91198314	     31.82636747	     -6.45549233	     -1.90796872	    -52.00213629	     -6.92274405	     -4.75246744	     23.14928256	      5.18903746	      4.18328169	      5.36492130
      4.90000000	     -7.60907218	     -4.54080448	      1.33781006	     -1.34148905	      0.00135561	     -0.22079128	      3.03550647	     10.06309238	      9.93812737	     -6.85736115	     19.71442478	      5.46313985	    -45.89830332	     32.11083529	     -6.31409522	     -2.10815889	    -50.81267779	     -6.54853997	     -4.56383683	     22.98029635	      5.08289904	      4.09846685	      5.70519633
      4.90500000	     -7.67024399	     -4.42763021	      1.13394424	     -1.33686259	      0.00103950	     -0.22057484	      2.70682730	      9.96686583	     10.17825135	     -6.74712879	     19.86040093	      5.38491839	    -45.86486263	     32.43625373	     -6.12620725	     -2.18338617	    -49.56590123	     -6.27651774	     -4.36729541	     22.84937455	      5.01838061	      4.01847741	      6.02671636
      4.91000000	     -7.57303599	     -4.32631957	      0.85294429	     -1.33216177	      0.00085573	     -0.22024438	      2.13972778	      9.89571255	     10.82948701	     -6.53511611	     19.82838111	      4.93451582	    -45.80955706	     32.54033116	     -6.03715667	     -2.42272442	    -48.29876690	     -5.80189465	     -4.06735078	     22.21222312	      4.79078736	      3.96362507	      6.44155788
      4.91500000	     -7.64327434	     -4.23232257	      0.56538202	     -1.32754606	      0.00047561	     -0.21995493	      1.84136174	      9.82137025	     11.14283478	     -6.47472842	     19.97276163	      4.88843830	    -45.67731521	     32.81127003	     -5.94306935	     -2.60521255	    -46.96406131	     -5.51474912	     -3.84816704	     21.97565441	      4.73425377	      3.91756594	      6.85050864
      4.92000000	     -7.66057180	     -4.12255864	      0.30925924	     -1.32289205	      0.00014018	     -0.21970752	      1.46043552	      9.72681135	     11.54928647	     -6.36647256	     20.04122897	      4.67614098	    -45.52179857	     32.98960469	     -5.82070025	     -2.76438440	    -45.57669141	     -5.19106821	     -3.60036929	     21.54561075	      4.62383596	      3.84809763	      7.22615397
